<?xml version="1.0" encoding="UTF-8" standalone="no"?><!DOCTYPE svg PUBLIC "-//W3C//DTD SVG 1.1//EN" "http://www.w3.org/Graphics/SVG/1.1/DTD/svg11.dtd"><svg width="100%" height="100%" viewBox="0 0 190 162" version="1.1" xmlns="http://www.w3.org/2000/svg" xmlns:xlink="http://www.w3.org/1999/xlink" xml:space="preserve" style="fill-rule:evenodd;clip-rule:evenodd;stroke-linejoin:round;stroke-miterlimit:1.41421;"><g id="s"><g id="c"><path id="t" d="M77.506,5.924l-3.099,9.54l4.77,1.55l-1.671,-11.09Z" style="fill:#625f60;fill-rule:nonzero;"/><path id="t1" d="M77.506,5.924l3.1,9.54l-4.77,1.55l1.67,-11.09Z" style="fill:#625f60;fill-rule:nonzero;"/></g><g id="a"><g id="c1"><path id="t2" d="M87.047,12.855l-10.032,0l0,5.016l10.032,-5.016Z" style="fill:#625f60;fill-rule:nonzero;"/><path id="t3" d="M87.047,12.855l-8.116,5.897l-2.948,-4.058l11.064,-1.839Z" style="fill:#625f60;fill-rule:nonzero;"/></g><g id="c2"><path id="t4" d="M83.403,24.071l-3.1,-9.541l-4.77,1.55l7.87,7.991Z" style="fill:#625f60;fill-rule:nonzero;"/><path id="t5" d="M83.403,24.071l-8.116,-5.896l2.948,-4.058l5.168,9.954Z" style="fill:#625f60;fill-rule:nonzero;"/></g></g><g id="a1"><g id="c3"><path id="t6" d="M67.966,12.855l10.031,0l0,5.016l-10.031,-5.016Z" style="fill:#625f60;fill-rule:nonzero;"/><path id="t7" d="M67.966,12.855l8.116,5.897l2.948,-4.058l-11.064,-1.839Z" style="fill:#625f60;fill-rule:nonzero;"/></g><g id="c4"><path id="t8" d="M71.61,24.071l3.1,-9.541l4.77,1.55l-7.87,7.991Z" style="fill:#625f60;fill-rule:nonzero;"/><path id="t9" d="M71.61,24.071l8.116,-5.896l-2.948,-4.058l-5.168,9.954Z" style="fill:#625f60;fill-rule:nonzero;"/></g></g></g><g id="s1"><g id="c5"><path id="t10" d="M77.506,126.299l-3.099,9.54l4.77,1.55l-1.671,-11.09Z" style="fill:#625f60;fill-rule:nonzero;"/><path id="t11" d="M77.506,126.299l3.1,9.54l-4.77,1.55l1.67,-11.09Z" style="fill:#625f60;fill-rule:nonzero;"/></g><g id="a2"><g id="c6"><path id="t12" d="M87.047,133.231l-10.032,0l0,5.015l10.032,-5.015Z" style="fill:#625f60;fill-rule:nonzero;"/><path id="t13" d="M87.047,133.231l-8.116,5.896l-2.948,-4.058l11.064,-1.838Z" style="fill:#625f60;fill-rule:nonzero;"/></g><g id="c7"><path id="t14" d="M83.403,144.446l-3.1,-9.54l-4.77,1.549l7.87,7.991Z" style="fill:#625f60;fill-rule:nonzero;"/><path id="t15" d="M83.403,144.446l-8.116,-5.896l2.948,-4.058l5.168,9.954Z" style="fill:#625f60;fill-rule:nonzero;"/></g></g><g id="a3"><g id="c8"><path id="t16" d="M67.966,133.231l10.031,0l0,5.015l-10.031,-5.015Z" style="fill:#625f60;fill-rule:nonzero;"/><path id="t17" d="M67.966,133.231l8.116,5.896l2.948,-4.058l-11.064,-1.838Z" style="fill:#625f60;fill-rule:nonzero;"/></g><g id="c9"><path id="t18" d="M71.61,144.446l3.1,-9.54l4.77,1.549l-7.87,7.991Z" style="fill:#625f60;fill-rule:nonzero;"/><path id="t19" d="M71.61,144.446l8.116,-5.896l-2.948,-4.058l-5.168,9.954Z" style="fill:#625f60;fill-rule:nonzero;"/></g></g></g><g id="l"><g id="s2"><g id="c10"><path id="t20" d="M17.319,66.112l-3.1,9.54l4.77,1.55l-1.67,-11.09Z" style="fill:#625f60;fill-rule:nonzero;"/><path id="t21" d="M17.319,66.112l3.1,9.54l-4.77,1.55l1.67,-11.09Z" style="fill:#625f60;fill-rule:nonzero;"/></g><g id="a4"><g id="c11"><path id="t22" d="M26.859,73.043l-10.031,0l0,5.016l10.031,-5.016Z" style="fill:#625f60;fill-rule:nonzero;"/><path id="t23" d="M26.859,73.043l-8.115,5.896l-2.948,-4.057l11.063,-1.839Z" style="fill:#625f60;fill-rule:nonzero;"/></g><g id="c12"><path id="t24" d="M23.215,84.258l-3.1,-9.54l-4.77,1.55l7.87,7.99Z" style="fill:#625f60;fill-rule:nonzero;"/><path id="t25" d="M23.215,84.258l-8.115,-5.896l2.948,-4.058l5.167,9.954Z" style="fill:#625f60;fill-rule:nonzero;"/></g></g><g id="a5"><g id="c13"><path id="t26" d="M7.779,73.043l10.031,0l0,5.016l-10.031,-5.016Z" style="fill:#625f60;fill-rule:nonzero;"/><path id="t27" d="M7.779,73.043l8.115,5.896l2.948,-4.057l-11.063,-1.839Z" style="fill:#625f60;fill-rule:nonzero;"/></g><g id="c14"><path id="t28" d="M11.423,84.258l3.1,-9.54l4.77,1.55l-7.87,7.99Z" style="fill:#625f60;fill-rule:nonzero;"/><path id="t29" d="M11.423,84.258l8.115,-5.896l-2.948,-4.058l-5.167,9.954Z" style="fill:#625f60;fill-rule:nonzero;"/></g></g></g><g id="s3"><g id="c15"><path id="t30" d="M41.516,32.134l8.116,-5.896l-2.948,-4.058l-5.168,9.954Z" style="fill:#625f60;fill-rule:nonzero;"/><path id="t31" d="M41.516,32.134l3.1,-9.54l4.77,1.55l-7.87,7.99Z" style="fill:#625f60;fill-rule:nonzero;"/></g><g id="a6"><g id="c16"><path id="t32" d="M37.872,20.919l8.116,5.896l2.948,-4.057l-11.064,-1.839Z" style="fill:#625f60;fill-rule:nonzero;"/><path id="t33" d="M37.872,20.919l10.032,0l0,5.016l-10.032,-5.016Z" style="fill:#625f60;fill-rule:nonzero;"/></g><g id="c17"><path id="t34" d="M47.413,13.988l-3.1,9.54l4.77,1.55l-1.67,-11.09Z" style="fill:#625f60;fill-rule:nonzero;"/><path id="t35" d="M47.413,13.988l3.099,9.54l-4.77,1.55l1.671,-11.09Z" style="fill:#625f60;fill-rule:nonzero;"/></g></g><g id="a7"><g id="c18"><path id="t36" d="M53.309,32.134l-8.116,-5.896l2.949,-4.058l5.167,9.954Z" style="fill:#625f60;fill-rule:nonzero;"/><path id="t37" d="M53.309,32.134l-3.1,-9.54l-4.77,1.55l7.87,7.99Z" style="fill:#625f60;fill-rule:nonzero;"/></g><g id="c19"><path id="t38" d="M56.953,20.919l-8.115,5.896l-2.949,-4.057l11.064,-1.839Z" style="fill:#625f60;fill-rule:nonzero;"/><path id="t39" d="M56.953,20.919l-10.031,0l0,5.016l10.031,-5.016Z" style="fill:#625f60;fill-rule:nonzero;"/></g></g></g><g id="s4"><g id="c20"><path id="t40" d="M31.279,54.165l-3.1,-9.541l-4.77,1.55l7.87,7.991Z" style="fill:#625f60;fill-rule:nonzero;"/><path id="t41" d="M31.279,54.165l-8.116,-5.897l2.948,-4.057l5.168,9.954Z" style="fill:#625f60;fill-rule:nonzero;"/></g><g id="a8"><g id="c21"><path id="t42" d="M19.486,54.165l8.116,-5.897l-2.948,-4.057l-5.168,9.954Z" style="fill:#625f60;fill-rule:nonzero;"/><path id="t43" d="M19.486,54.165l3.1,-9.541l4.77,1.55l-7.87,7.991Z" style="fill:#625f60;fill-rule:nonzero;"/></g><g id="c22"><path id="t44" d="M15.842,42.949l8.116,5.896l2.948,-4.057l-11.064,-1.839Z" style="fill:#625f60;fill-rule:nonzero;"/><path id="t45" d="M15.842,42.949l10.031,0l0,5.016l-10.031,-5.016Z" style="fill:#625f60;fill-rule:nonzero;"/></g></g><g id="a9"><g id="c23"><path id="t46" d="M34.923,42.949l-8.116,5.896l-2.948,-4.057l11.064,-1.839Z" style="fill:#625f60;fill-rule:nonzero;"/><path id="t47" d="M34.923,42.949l-10.031,0l0,5.016l10.031,-5.016Z" style="fill:#625f60;fill-rule:nonzero;"/></g><g id="c24"><path id="t48" d="M25.383,36.018l3.099,9.54l-4.77,1.55l1.671,-11.09Z" style="fill:#625f60;fill-rule:nonzero;"/><path id="t49" d="M25.383,36.018l-3.1,9.54l4.77,1.55l-1.67,-11.09Z" style="fill:#625f60;fill-rule:nonzero;"/></g></g></g><g id="s5"><g id="c25"><path id="t50" d="M34.923,103.137l-10.031,0l0,5.015l10.031,-5.015Z" style="fill:#625f60;fill-rule:nonzero;"/><path id="t51" d="M34.923,103.137l-8.116,5.896l-2.948,-4.058l11.064,-1.838Z" style="fill:#625f60;fill-rule:nonzero;"/></g><g id="a10"><g id="c26"><path id="t52" d="M31.279,114.352l-3.1,-9.54l-4.77,1.55l7.87,7.99Z" style="fill:#625f60;fill-rule:nonzero;"/><path id="t53" d="M31.279,114.352l-8.116,-5.896l2.948,-4.058l5.168,9.954Z" style="fill:#625f60;fill-rule:nonzero;"/></g><g id="c27"><path id="t54" d="M19.486,114.352l8.116,-5.896l-2.948,-4.058l-5.168,9.954Z" style="fill:#625f60;fill-rule:nonzero;"/><path id="t55" d="M19.486,114.352l3.1,-9.54l4.77,1.55l-7.87,7.99Z" style="fill:#625f60;fill-rule:nonzero;"/></g></g><g id="a11"><g id="c28"><path id="t56" d="M25.383,96.205l3.099,9.541l-4.77,1.55l1.671,-11.091Z" style="fill:#625f60;fill-rule:nonzero;"/><path id="t57" d="M25.383,96.205l-3.1,9.541l4.77,1.55l-1.67,-11.091Z" style="fill:#625f60;fill-rule:nonzero;"/></g><g id="c29"><path id="t58" d="M15.842,103.137l10.031,0l0,5.015l-10.031,-5.015Z" style="fill:#625f60;fill-rule:nonzero;"/><path id="t59" d="M15.842,103.137l8.116,5.896l2.948,-4.058l-11.064,-1.838Z" style="fill:#625f60;fill-rule:nonzero;"/></g></g></g><g id="s6"><g id="c30"><path id="t60" d="M56.953,125.167l-10.031,0l0,5.016l10.031,-5.016Z" style="fill:#625f60;fill-rule:nonzero;"/><path id="t61" d="M56.953,125.167l-8.115,5.896l-2.949,-4.058l11.064,-1.838Z" style="fill:#625f60;fill-rule:nonzero;"/></g><g id="a12"><g id="c31"><path id="t62" d="M53.309,136.382l-3.1,-9.54l-4.77,1.55l7.87,7.99Z" style="fill:#625f60;fill-rule:nonzero;"/><path id="t63" d="M53.309,136.382l-8.116,-5.896l2.949,-4.058l5.167,9.954Z" style="fill:#625f60;fill-rule:nonzero;"/></g><g id="c32"><path id="t64" d="M41.516,136.382l8.116,-5.896l-2.948,-4.058l-5.168,9.954Z" style="fill:#625f60;fill-rule:nonzero;"/><path id="t65" d="M41.516,136.382l3.1,-9.54l4.77,1.55l-7.87,7.99Z" style="fill:#625f60;fill-rule:nonzero;"/></g></g><g id="a13"><g id="c33"><path id="t66" d="M47.413,118.236l3.099,9.54l-4.77,1.55l1.671,-11.09Z" style="fill:#625f60;fill-rule:nonzero;"/><path id="t67" d="M47.413,118.236l-3.1,9.54l4.77,1.55l-1.67,-11.09Z" style="fill:#625f60;fill-rule:nonzero;"/></g><g id="c34"><path id="t68" d="M37.872,125.167l10.032,0l0,5.016l-10.032,-5.016Z" style="fill:#625f60;fill-rule:nonzero;"/><path id="t69" d="M37.872,125.167l8.116,5.896l2.948,-4.058l-11.064,-1.838Z" style="fill:#625f60;fill-rule:nonzero;"/></g></g></g></g><g id="l1"><g id="s7"><g id="c35"><path id="t70" d="M137.694,66.112l3.1,9.54l-4.77,1.55l1.67,-11.09Z" style="fill:#625f60;fill-rule:nonzero;"/><path id="t71" d="M137.694,66.112l-3.1,9.54l4.77,1.55l-1.67,-11.09Z" style="fill:#625f60;fill-rule:nonzero;"/></g><g id="a14"><g id="c36"><path id="t72" d="M128.154,73.043l10.031,0l0,5.016l-10.031,-5.016Z" style="fill:#625f60;fill-rule:nonzero;"/><path id="t73" d="M128.154,73.043l8.115,5.896l2.948,-4.057l-11.063,-1.839Z" style="fill:#625f60;fill-rule:nonzero;"/></g><g id="c37"><path id="t74" d="M131.798,84.258l3.1,-9.54l4.77,1.55l-7.87,7.99Z" style="fill:#625f60;fill-rule:nonzero;"/><path id="t75" d="M131.798,84.258l8.115,-5.896l-2.948,-4.058l-5.167,9.954Z" style="fill:#625f60;fill-rule:nonzero;"/></g></g><g id="a15"><g id="c38"><path id="t76" d="M147.234,73.043l-10.031,0l0,5.016l10.031,-5.016Z" style="fill:#625f60;fill-rule:nonzero;"/><path id="t77" d="M147.234,73.043l-8.115,5.896l-2.948,-4.057l11.063,-1.839Z" style="fill:#625f60;fill-rule:nonzero;"/></g><g id="c39"><path id="t78" d="M143.59,84.258l-3.1,-9.54l-4.77,1.55l7.87,7.99Z" style="fill:#625f60;fill-rule:nonzero;"/><path id="t79" d="M143.59,84.258l-8.115,-5.896l2.948,-4.058l5.167,9.954Z" style="fill:#625f60;fill-rule:nonzero;"/></g></g></g><g id="s8"><g id="c40"><path id="t80" d="M113.496,32.134l-8.115,-5.896l2.948,-4.058l5.167,9.954Z" style="fill:#625f60;fill-rule:nonzero;"/><path id="t81" d="M113.496,32.134l-3.099,-9.54l-4.771,1.55l7.87,7.99Z" style="fill:#625f60;fill-rule:nonzero;"/></g><g id="a16"><g id="c41"><path id="t82" d="M117.14,20.919l-8.115,5.896l-2.948,-4.057l11.063,-1.839Z" style="fill:#625f60;fill-rule:nonzero;"/><path id="t83" d="M117.14,20.919l-10.031,0l0,5.016l10.031,-5.016Z" style="fill:#625f60;fill-rule:nonzero;"/></g><g id="c42"><path id="t84" d="M107.6,13.988l3.1,9.54l-4.77,1.55l1.67,-11.09Z" style="fill:#625f60;fill-rule:nonzero;"/><path id="t85" d="M107.6,13.988l-3.1,9.54l4.771,1.55l-1.671,-11.09Z" style="fill:#625f60;fill-rule:nonzero;"/></g></g><g id="a17"><g id="c43"><path id="t86" d="M101.704,32.134l8.115,-5.896l-2.948,-4.058l-5.167,9.954Z" style="fill:#625f60;fill-rule:nonzero;"/><path id="t87" d="M101.704,32.134l3.1,-9.54l4.77,1.55l-7.87,7.99Z" style="fill:#625f60;fill-rule:nonzero;"/></g><g id="c44"><path id="t88" d="M98.06,20.919l8.115,5.896l2.948,-4.057l-11.063,-1.839Z" style="fill:#625f60;fill-rule:nonzero;"/><path id="t89" d="M98.06,20.919l10.031,0l0,5.016l-10.031,-5.016Z" style="fill:#625f60;fill-rule:nonzero;"/></g></g></g><g id="s9"><g id="c45"><path id="t90" d="M123.734,54.165l3.1,-9.541l4.77,1.55l-7.87,7.991Z" style="fill:#625f60;fill-rule:nonzero;"/><path id="t91" d="M123.734,54.165l8.116,-5.897l-2.949,-4.057l-5.167,9.954Z" style="fill:#625f60;fill-rule:nonzero;"/></g><g id="a18"><g id="c46"><path id="t92" d="M135.527,54.165l-8.116,-5.897l2.948,-4.057l5.168,9.954Z" style="fill:#625f60;fill-rule:nonzero;"/><path id="t93" d="M135.527,54.165l-3.1,-9.541l-4.77,1.55l7.87,7.991Z" style="fill:#625f60;fill-rule:nonzero;"/></g><g id="c47"><path id="t94" d="M139.171,42.949l-8.116,5.896l-2.948,-4.057l11.064,-1.839Z" style="fill:#625f60;fill-rule:nonzero;"/><path id="t95" d="M139.171,42.949l-10.032,0l0,5.016l10.032,-5.016Z" style="fill:#625f60;fill-rule:nonzero;"/></g></g><g id="a19"><g id="c48"><path id="t96" d="M120.09,42.949l8.116,5.896l2.948,-4.057l-11.064,-1.839Z" style="fill:#625f60;fill-rule:nonzero;"/><path id="t97" d="M120.09,42.949l10.031,0l0,5.016l-10.031,-5.016Z" style="fill:#625f60;fill-rule:nonzero;"/></g><g id="c49"><path id="t98" d="M129.63,36.018l-3.099,9.54l4.77,1.55l-1.671,-11.09Z" style="fill:#625f60;fill-rule:nonzero;"/><path id="t99" d="M129.63,36.018l3.1,9.54l-4.77,1.55l1.67,-11.09Z" style="fill:#625f60;fill-rule:nonzero;"/></g></g></g><g id="s10"><g id="c50"><path id="t100" d="M120.09,103.137l10.031,0l0,5.015l-10.031,-5.015Z" style="fill:#625f60;fill-rule:nonzero;"/><path id="t101" d="M120.09,103.137l8.116,5.896l2.948,-4.058l-11.064,-1.838Z" style="fill:#625f60;fill-rule:nonzero;"/></g><g id="a20"><g id="c51"><path id="t102" d="M123.734,114.352l3.1,-9.54l4.77,1.55l-7.87,7.99Z" style="fill:#625f60;fill-rule:nonzero;"/><path id="t103" d="M123.734,114.352l8.116,-5.896l-2.949,-4.058l-5.167,9.954Z" style="fill:#625f60;fill-rule:nonzero;"/></g><g id="c52"><path id="t104" d="M132.427,110.352l-5.016,-1.896l2.948,-4.058l2.068,5.954Z" style="fill:#625f60;fill-rule:nonzero;"/><path id="t105" d="M131.527,110.352l0.9,-5.54l-4.77,1.55l3.87,3.99Z" style="fill:#625f60;fill-rule:nonzero;"/></g></g><g id="a21"><g id="c53"><path id="t106" d="M129.63,96.205l-3.099,9.541l4.77,1.55l-1.671,-11.091Z" style="fill:#625f60;fill-rule:nonzero;"/><path id="t107" d="M129.63,96.205l3.1,9.541l-4.77,1.55l1.67,-11.091Z" style="fill:#625f60;fill-rule:nonzero;"/></g><g id="c54"><path id="t108" d="M139.171,103.137l-10.032,0l0,5.015l10.032,-5.015Z" style="fill:#625f60;fill-rule:nonzero;"/><path id="t109" d="M139.171,103.137l-8.116,5.896l-2.948,-4.058l11.064,-1.838Z" style="fill:#625f60;fill-rule:nonzero;"/></g></g></g><g id="s11"><g id="c55"><path id="t110" d="M98.06,125.167l10.031,0l0,5.016l-10.031,-5.016Z" style="fill:#625f60;fill-rule:nonzero;"/><path id="t111" d="M98.06,125.167l8.115,5.896l2.948,-4.058l-11.063,-1.838Z" style="fill:#625f60;fill-rule:nonzero;"/></g><g id="a22"><g id="c56"><path id="t112" d="M101.704,136.382l3.1,-9.54l4.77,1.55l-7.87,7.99Z" style="fill:#625f60;fill-rule:nonzero;"/><path id="t113" d="M101.704,136.382l8.115,-5.896l-2.948,-4.058l-5.167,9.954Z" style="fill:#625f60;fill-rule:nonzero;"/></g><g id="c57"><path id="t114" d="M113.496,136.382l-8.115,-5.896l2.948,-4.058l5.167,9.954Z" style="fill:#625f60;fill-rule:nonzero;"/><path id="t115" d="M113.496,136.382l-3.099,-9.54l-4.771,1.55l7.87,7.99Z" style="fill:#625f60;fill-rule:nonzero;"/></g></g><g id="a23"><g id="c58"><path id="t116" d="M107.6,118.236l-3.1,9.54l4.771,1.55l-1.671,-11.09Z" style="fill:#625f60;fill-rule:nonzero;"/><path id="t117" d="M107.6,118.236l3.1,9.54l-4.77,1.55l1.67,-11.09Z" style="fill:#625f60;fill-rule:nonzero;"/></g><g id="c59"><path id="t118" d="M117.14,125.167l-10.031,0l0,5.016l10.031,-5.016Z" style="fill:#625f60;fill-rule:nonzero;"/><path id="t119" d="M117.14,125.167l-8.115,5.896l-2.948,-4.058l11.063,-1.838Z" style="fill:#625f60;fill-rule:nonzero;"/></g></g></g></g><g><g><path d="M162.65,11.224l-106.02,112.141l29,22.189l103.383,-145.554l-26.363,11.224Z" style="fill:#0c6;"/><path d="M14.92,85.298l-14.92,19.5l73.679,56.376l14.92,-19.5l-73.679,-56.376Z" style="fill:#0c6;"/></g><g><path id="block1" d="M61.513,127.511l21.076,0l0,-4.884l-21.076,0l0,4.884Z" style="fill:#fff;fill-rule:nonzero;"/><rect id="block2" x="56.63" y="129.832" width="21.075" height="4.883" style="fill:#fff;fill-rule:nonzero;"/><path id="block3" d="M61.513,141.912l21.076,0l0,-4.883l-21.076,0l0,4.883Z" style="fill:#fff;fill-rule:nonzero;"/></g></g></svg>